<?xml version="1.0" encoding="UTF-8"?>
<svg width="24px" height="11px" viewBox="0 0 24 11" version="1.1" xmlns="http://www.w3.org/2000/svg" xmlns:xlink="http://www.w3.org/1999/xlink">
    <!-- Generator: Sketch 59.1 (86144) - https://sketch.com -->
    <title>arrow-right</title>
    <desc>Created with Sketch.</desc>
    <g id="Page-1" stroke="none" stroke-width="1" fill="none" fill-rule="evenodd">
        <g id="arrow-right" fill="#000000" fill-rule="nonzero">
            <path d="M18.0885912,0.215694497 L18.1464466,0.146446609 C18.320013,-0.0271197425 18.5894374,-0.0464048927 18.7843055,0.0885911588 L18.8535534,0.146446609 L23.8824248,5.17787551 L23.9111573,5.21533977 L23.9532565,5.28860425 L23.9833892,5.37186086 L23.997912,5.45421382 L23.999584,5.52058436 L23.9921465,5.58872598 L23.9622078,5.69103656 L23.922812,5.76701032 L23.8824063,5.82214364 L18.8535534,10.8535534 C18.6582912,11.0488155 18.3417088,11.0488155 18.1464466,10.8535534 C17.9728803,10.679987 17.9535951,10.4105626 18.0885912,10.2156945 L18.1464466,10.1464466 L22.292,6 L0.5,6 C0.254540111,6 0.0503916296,5.82312484 0.00805566941,5.58987563 L0,5.5 C0,5.25454011 0.176875161,5.05039163 0.410124368,5.00805567 L0.5,5 L22.293,5 L18.1464466,0.853553391 C17.9728803,0.679987039 17.9535951,0.410562638 18.0885912,0.215694497 L18.1464466,0.146446609 L18.0885912,0.215694497 Z" id="Shape"></path>
        </g>
    </g>
</svg>