<svg width="27" height="36" viewBox="0 0 27 36" xmlns="http://www.w3.org/2000/svg">
  <g fill="none" fill-rule="evenodd">
    <path
      d="M27 34.435c0 .864-.71 1.565-1.588 1.565H1.588A1.576 1.576 0 0 1 0 34.435V1.565C0 .701.71 0 1.588 0h16.72c.474 0 .924.21 1.226.571l7.104 8.517c.235.28.362.632.362.994v24.353z"
      fill="#01CAAF" fill-rule="nonzero"></path>
    <path
      d="M22.5 29.986c0 .388-.331.704-.741.704H10.64c-.41 0-.741-.316-.741-.704V15.194c0-.388.331-.704.741-.704h7.803c.221 0 .43.094.572.257l3.315 3.832c.11.127.169.285.169.448v10.959z"
      fill="#FFF"></path>
  </g>
</svg>
