<?xml version="1.0" encoding="UTF-8"?>
<svg width="36px" height="36px" viewBox="0 0 36 36" version="1.1" xmlns="http://www.w3.org/2000/svg" xmlns:xlink="http://www.w3.org/1999/xlink">
    <!-- Generator: Sketch 59.1 (86144) - https://sketch.com -->
    <g id="Page-1" stroke="none" stroke-width="1" fill="none" fill-rule="evenodd">
        <g id="gear-2" fill="#000000" fill-rule="nonzero">
            <path d="M15.5835653,18.8295419 C17.0847736,19.7918206 18.0001993,21.4558179 18.0000001,23.2500833 C17.9996778,26.1498544 15.6486877,28.5003222 12.7489167,28.5 C9.84914559,28.4996778 7.49867784,26.1486877 7.499,23.2489166 C7.49920841,21.3730937 8.50014063,19.639873 10.1247552,18.702142 C11.6755236,17.8070351 13.569675,17.766551 15.1514788,18.5806169 L15.3752552,18.7027253 L15.5835653,18.8295419 Z M14.4176596,19.890383 C13.2975101,19.3338885 11.9668303,19.370832 10.8746108,20.0012634 C9.71412768,20.6710968 8.99914886,21.9091587 8.999,23.2490833 C8.99876987,25.3204273 10.6777394,26.9997699 12.7490833,27 C14.8204273,27.0002301 16.4997699,25.3212606 16.5000001,23.2499167 C16.5001406,21.9844323 15.8626503,20.8096653 14.8143275,20.1185424 L14.6251109,20.0016801 L14.4176596,19.890383 Z" id="Path"></path>
            <path d="M15.749,10.499 C16.1632136,10.499 16.499,10.8347864 16.499,11.249 L16.499,13.4533144 C17.5344515,13.8487462 18.501229,14.4047739 19.3637329,15.1009268 L21.2657001,14.0016542 C21.6244378,13.794316 22.0833372,13.917161 22.2905143,14.2759917 L25.2905143,19.4719917 C25.4975548,19.8305858 25.3748164,20.2891187 25.0163225,20.4963327 L23.1107582,21.5977731 L23.1681619,22.0091882 C23.2828811,22.9709869 23.2630627,23.9442573 23.1091672,24.9008498 L25.015673,26.0002923 C25.3746276,26.207294 25.4977012,26.6661605 25.2905143,27.0250083 L22.2905143,32.2210083 C22.0834697,32.5796095 21.6249832,32.7025663 21.2662877,32.4956851 L19.3673386,31.4004472 C18.5050992,32.0994417 17.5367757,32.6563524 16.499,33.0501166 L16.499,35.248 C16.499,35.6622136 16.1632136,35.998 15.749,35.998 L9.749,35.998 C9.33478644,35.998 8.999,35.6622136 8.999,35.248 L8.999,33.045823 C7.96351471,32.6505954 6.99682468,32.0944407 6.13467143,31.397917 L4.23176802,32.4956529 C3.87306843,32.7025775 3.41454289,32.5796313 3.20748571,32.2210083 L0.207485711,27.0250083 C0.0003452197,26.6662409 0.123312494,26.2074801 0.482121051,26.0004111 L2.38901461,24.8999393 C2.21342035,23.806214 2.21343938,22.6914259 2.38907171,21.5977051 L0.481709535,20.4953513 C0.123192926,20.2881478 0.000438010695,19.8295984 0.207485711,19.4709917 L3.20748571,14.2749917 C3.41476316,13.9159872 3.87397542,13.793227 4.23274465,14.0009114 L6.13136696,15.0999867 C6.99356538,14.4010709 7.96159011,13.8438688 8.999,13.4493542 L8.999,11.249 C8.999,10.8347864 9.33478644,10.499 9.749,10.499 L15.749,10.499 Z M14.999,11.999 L10.499,11.999 L10.499,13.981 C10.499,14.3068981 10.288539,14.5954976 9.97823697,14.6951081 C8.7706318,15.0827634 7.65913416,15.7224878 6.71731548,16.5719373 C6.47562794,16.7899213 6.1209327,16.8271461 5.83925535,16.6640886 L4.13108049,15.6752596 L1.88135961,19.5717762 L3.59929047,20.5646487 C3.88114607,20.7275463 4.02573096,21.0536702 3.95718674,21.3719152 C3.69071533,22.6091194 3.69071533,23.8888806 3.95718674,25.1260848 C4.02576785,25.4445011 3.88098945,25.7707824 3.59887895,25.9335889 L1.8815972,26.9246353 L4.1316447,30.8217176 L5.84323198,29.8343471 C6.12425244,29.6722336 6.47764855,29.7091865 6.71905403,29.9259275 C7.66229902,30.7728009 8.77316007,31.4117584 9.97946549,31.8012874 C10.2891428,31.9012856 10.499,32.1895777 10.499,32.515 L10.499,34.498 L14.999,34.498 L14.999,32.518 C14.999,32.1918454 15.2097868,31.9030805 15.5204254,31.8036796 C16.7278974,31.4173019 17.839272,30.7782772 18.7806417,29.9291014 C19.0220019,29.7113789 19.3761384,29.6739144 19.6577123,29.8363149 L21.3663232,30.8217733 L23.6162839,26.9248413 L21.899327,25.9347077 C21.6170206,25.7719075 21.4721513,25.4454351 21.5408583,25.1268756 C21.7809601,24.0136467 21.8058256,22.8650494 21.6173536,21.7590483 L21.5395898,21.356127 C21.479025,21.0423191 21.623976,20.7246042 21.9006775,20.5646673 L23.6166589,19.5728082 L21.3666624,15.6758143 L19.6562999,16.6643458 C19.375349,16.8267259 19.0218354,16.7900061 18.7802554,16.5733501 C17.8362074,15.7267006 16.7249248,15.0876816 15.5183135,14.6976412 C15.2087486,14.5975735 14.999,14.3093367 14.999,13.984 L14.999,11.999 Z M28.5003333,4.49799959 L28.6766626,4.50317265 C30.2519541,4.59514959 31.5007098,5.90211977 31.5000005,7.50033338 C31.4995236,8.57248736 30.9270961,9.56294433 29.9983454,10.0986088 C29.0695946,10.6342733 27.9256199,10.6337651 26.9973454,10.0972756 C26.0690711,9.56078616 25.4975238,8.56982099 25.4979996,7.49766666 C25.4987365,5.8402603 26.8429267,4.4972639 28.5003333,4.49799959 Z M28.499667,5.99799975 L28.3551076,6.00480671 C27.5939161,6.07720191 26.9983465,6.71811727 26.9979996,7.49833299 C26.9977616,8.03458883 27.2836305,8.53023667 27.7479225,8.79857083 C28.2122144,9.06690499 28.7843924,9.06715918 29.2489226,8.79923764 C29.7134527,8.53131611 29.9997619,8.03592246 30.0000005,7.49966697 C30.0003684,6.67068742 29.3286462,5.99836817 28.499667,5.99799975 Z" id="Shape"></path>
            <path d="M26.25,0.75 C26.25,0.335786438 26.5857864,0 27,0 L30,0 C30.4142136,0 30.75,0.335786438 30.75,0.75 L30.75,1.95390965 C31.2597723,2.16238976 31.7380151,2.4409334 32.1708629,2.78145674 L33.2186127,2.1757047 C33.5773566,1.96829846 34.0363175,2.09112686 34.2435143,2.44999175 L35.7435143,5.04799175 C35.9505402,5.40656055 35.8278352,5.86506019 35.4693873,6.0722953 L34.4209166,6.67846412 C34.4992729,7.22351958 34.5013141,7.77696936 34.42705,8.32288134 L35.4709416,8.92544722 C35.8297057,9.13253677 35.9526407,9.59126538 35.7455143,9.95000825 L34.2455143,12.5480083 C34.0384602,12.906626 33.5799442,13.0295747 33.2212456,12.8226608 L32.1776587,12.2206716 C31.7420625,12.5601979 31.2616141,12.8379301 30.75,13.0459559 L30.75,14.25 C30.75,14.6642136 30.4142136,15 30,15 L27,15 C26.5857864,15 26.25,14.6642136 26.25,14.25 L26.25,13.0478656 C25.7395104,12.8389563 25.260555,12.560003 24.8269732,12.219073 L23.7807918,12.8226392 C23.4220905,13.0295822 22.9635483,12.9066406 22.7564857,12.5480083 L21.2564857,9.95000825 C21.0494712,9.59145915 21.1721502,9.13298543 21.5305623,8.92573386 L22.5774558,8.3203684 C22.4993657,7.77466072 22.4976998,7.22069133 22.5725111,6.67451255 L21.5306836,6.07233629 C21.1722276,5.86514874 21.0494655,5.40668871 21.2564232,5.04809998 L22.7564232,2.44909998 C22.9636189,2.09009902 23.422742,1.96724366 23.781539,2.17479242 L24.8254485,2.77864965 C25.1731033,2.50732656 25.5494565,2.27549065 25.9475051,2.08719626 L26.25,1.95420286 L26.25,0.75 Z M27.75,1.5 L27.75,2.484 C27.75,2.81510687 27.5328768,3.10703616 27.215768,3.20229253 C26.5463181,3.40338874 25.9332119,3.7583449 25.4254812,4.23877436 C25.1843267,4.46696173 24.8218449,4.5094469 24.534461,4.34320758 L23.6803077,3.84911622 L22.9302365,5.14873955 L23.7813164,5.64066371 C24.0678155,5.80626021 24.2119279,6.14005284 24.1359795,6.46213327 C23.9758849,7.14105983 23.9782292,7.84818016 24.1428221,8.52603026 C24.2213264,8.84933784 24.077454,9.1857209 23.7894377,9.35226614 L22.9302365,9.84907663 L23.680631,11.1486938 L24.5392082,10.6533608 C24.8275971,10.4869826 25.19115,10.5306414 25.4319468,10.7605692 C25.9369223,11.2427513 26.548385,11.5991936 27.2167918,11.8010158 C27.5333859,11.8966098 27.75,12.1882886 27.75,12.519 L27.75,13.5 L29.25,13.5 L29.25,12.516 C29.25,12.1848509 29.4671777,11.8928948 29.7843414,11.7976746 C30.4548473,11.5963726 31.0690805,11.2412737 31.5781135,10.7606635 C31.8190529,10.5331774 32.1807226,10.490766 32.4677544,10.6563392 L33.3213475,11.1487312 L34.071439,9.84957271 L33.2190584,9.35755278 C32.9326035,9.19220233 32.7882833,8.85872399 32.8638214,8.53671289 C33.0231952,7.85731961 33.02034,7.15060889 32.8553312,6.47359999 C32.7764853,6.15010614 32.9203569,5.81335857 33.2086127,5.6467047 L34.0696963,5.14887295 L33.3197129,3.84990175 L32.4593873,4.3472953 C32.1707586,4.5141647 31.8066255,4.47047348 31.5656656,4.24006037 C31.0617746,3.75822467 30.4511833,3.40224174 29.7836362,3.2011133 C29.4668269,3.10566031 29.25,2.81387678 29.25,2.483 L29.25,1.5 L27.75,1.5 Z" id="Path"></path>
        </g>
    </g>
</svg>
