<?xml version="1.0" encoding="UTF-8"?>
<svg width="34px" height="34px" viewBox="0 0 34 34" version="1.1" xmlns="http://www.w3.org/2000/svg" xmlns:xlink="http://www.w3.org/1999/xlink">
    <!-- Generator: Sketch 59.1 (86144) - https://sketch.com -->
    <title>globe-man</title>
    <desc>Created with Sketch.</desc>
    <g id="Page-1" stroke="none" stroke-width="1" fill="none" fill-rule="evenodd">
        <g id="globe-man" fill="#000000" fill-rule="nonzero">
            <path d="M28.4693093,9.43622339 L33.4273093,10.8522234 C33.6419856,10.9135347 33.79,11.1097401 33.79,11.333 L33.79,21.958 C33.79,22.2341424 33.5661424,22.458 33.29,22.458 L30.9398003,22.458 L29.5379136,33.3557941 C29.5058278,33.6052183 29.2934795,33.792 29.042,33.792 L21.957,33.792 C21.7055536,33.792 21.4932223,33.605266 21.4610975,33.3558802 L20.0572767,22.458 L17.707,22.458 C17.4308576,22.458 17.207,22.2341424 17.207,21.958 L17.207,11.333 C17.207,11.1097302 17.3550272,10.9135187 17.5697163,10.8522161 L22.5287163,9.43621608 C22.7600478,9.37016135 23.0056241,9.47821421 23.1132136,9.6933932 L25.499,14.463 L27.8847864,9.6933932 C27.9923804,9.47820523 28.2379717,9.37015358 28.4693093,9.43622339 Z M28.5936566,10.5117008 L25.9462136,15.8066068 C25.7619515,16.1751311 25.2360485,16.1751311 25.0517864,15.8066068 L22.4043334,10.5117008 L18.207,11.7102134 L18.207,21.458 L20.497,21.458 C20.7484464,21.458 20.9607777,21.644734 20.9929025,21.8941198 L22.3967233,32.792 L28.6021997,32.792 L30.0040864,21.8942059 C30.0361722,21.6447817 30.2485205,21.458 30.5,21.458 L32.79,21.458 L32.79,11.7101925 L28.5936566,10.5117008 Z M25.5010706,0.208000005 L25.7028064,0.212975191 C27.8414049,0.318395172 29.5428056,2.08588214 29.5425,4.25057058 C29.5421849,6.48290554 27.7322644,8.29231512 25.4999294,8.292 C23.2675945,8.29168487 21.4581849,6.48176437 21.4585,4.24942942 C21.4588151,2.01709446 23.2687356,0.207684881 25.5010706,0.208000005 Z M25.5009294,1.208 L25.3221881,1.21313875 C23.7253205,1.30543721 22.4587287,2.62952216 22.4585,4.24957058 C22.4582628,5.92962079 23.8200204,7.29176284 25.5000706,7.292 C27.1801208,7.29223717 28.5422628,5.93047963 28.5425,4.25042942 C28.5427372,2.57037921 27.1809796,1.20823716 25.5009294,1.208 Z" id="Shape"></path>
            <path d="M17.008,0.209 L17.1688394,0.211781124 L17.7294395,0.243459863 C17.9969971,0.254943021 18.208,0.475196118 18.208,0.743 L18.208,33.254 C18.208,33.4919221 18.0414518,33.6923347 17.816632,33.7421315 L17.7298046,33.7535243 L17.2147898,33.7849367 L16.955,33.792 C7.72345499,33.792 0.208,26.0242368 0.208,16.645 C0.208,7.40765414 7.63956012,0.209 17.008,0.209 Z M17.008,1.209 C8.18484494,1.209 1.208,7.96718979 1.208,16.645 C1.208,25.3727699 8.11380248,32.6155673 16.6422686,32.7888256 L17.0325295,32.7911764 L17.208,32.7838062 L17.208,1.21446135 L17.008,1.209 Z" id="Path"></path>
        </g>
    </g>
</svg>