<?xml version="1.0" encoding="UTF-8"?>
<svg width="18px" height="35px" viewBox="0 0 18 35" version="1.1" xmlns="http://www.w3.org/2000/svg" xmlns:xlink="http://www.w3.org/1999/xlink">
    <!-- Generator: Sketch 59.1 (86144) - https://sketch.com -->
    <title>Path</title>
    <desc>Created with Sketch.</desc>
    <g id="Page-1" stroke="none" stroke-width="1" fill="none" fill-rule="evenodd">
        <g id="lightning" fill="#000000" fill-rule="nonzero">
            <path d="M5.86431199,18.735 L0.607,18.735 C0.281417087,18.735 0.0426835266,18.4287812 0.122103965,18.1130335 L4.55710397,0.481033467 C4.61300496,0.25879078 4.8128347,0.103 5.042,0.103 L16.868,0.103 C17.261323,0.103 17.5006423,0.536166813 17.2912835,0.869141079 L10.3819976,11.858 L16.868,11.858 C17.2679894,11.858 17.5060539,12.3043457 17.283238,12.6365273 L2.50023795,34.6755273 C2.18447801,35.146273 1.45282396,34.8113179 1.60282453,34.2646867 L5.86431199,18.735 Z M15.9630024,1.103 L5.43180878,1.103 L1.24834009,17.735 L6.52,17.735 C6.85001134,17.735 7.08950527,18.0490666 7.00217547,18.3673133 L3.37927156,31.5698777 L15.9305528,12.858 L9.477,12.858 C9.08367701,12.858 8.84435769,12.4248332 9.05371649,12.0918589 L15.9630024,1.103 Z" id="Path"></path>
        </g>
    </g>
</svg>