<svg viewBox="0 0 18 16" xmlns="http://www.w3.org/2000/svg">
  <g fill-rule="evenodd">
    <path
      d="M18.033 1.813a6.997 6.997 0 0 1-2.124.607 3.84 3.84 0 0 0 1.63-2.137 7.286 7.286 0 0 1-2.356.937A3.616 3.616 0 0 0 12.486 0c-2.045 0-3.7 1.73-3.7 3.868 0 .303.032.6.098.882C5.804 4.585 3.08 3.047 1.253.71A4.003 4.003 0 0 0 .75 2.654a3.91 3.91 0 0 0 1.65 3.22 3.577 3.577 0 0 1-1.676-.482v.048c0 1.875 1.273 3.433 2.968 3.792a3.522 3.522 0 0 1-1.675.069c.468 1.537 1.84 2.654 3.456 2.689a7.243 7.243 0 0 1-5.481 1.6 10.15 10.15 0 0 0 5.672 1.737c6.807 0 10.528-5.895 10.528-11.004 0-.166-.007-.338-.014-.503a7.733 7.733 0 0 0 1.854-2.007z"></path>
  </g>
</svg>
