<svg viewBox="0 0 21 20" xmlns="http://www.w3.org/2000/svg">
  <g fill-rule="evenodd">
    <path
      d="M10.288 0A9.78 9.78 0 0 0 .5 9.788c0 4.327 2.804 7.99 6.693 9.286.486.097.664-.21.664-.47 0-.227-.016-1.005-.016-1.815-2.722.583-3.29-1.167-3.29-1.167-.437-1.134-1.085-1.426-1.085-1.426-.892-.6.064-.6.064-.6.989.065 1.508 1.005 1.508 1.005.875 1.491 2.284 1.07 2.852.81.08-.632.34-1.07.615-1.312-2.171-.227-4.456-1.07-4.456-4.83 0-1.069.389-1.944 1.005-2.625-.098-.243-.438-1.248.097-2.593 0 0 .826-.259 2.69 1.005a9.476 9.476 0 0 1 2.447-.324c.827 0 1.67.113 2.447.324 1.864-1.264 2.69-1.005 2.69-1.005.535 1.345.195 2.35.097 2.593.632.68 1.005 1.556 1.005 2.626 0 3.76-2.285 4.586-4.473 4.829.357.308.665.891.665 1.815 0 1.312-.016 2.366-.016 2.69 0 .26.178.567.664.47 3.89-1.297 6.693-4.96 6.693-9.286C20.076 4.375 15.684 0 10.288 0z"></path>
  </g>
</svg>
