<svg xmlns="http://www.w3.org/2000/svg" data-name="Layer 1" width="266" height="448"><rect id="backgroundrect" width="100%" height="100%" x="0" y="0" fill="none" stroke="none"/>
  
<g class="currentLayer" style=""><title>Layer 1</title><path d="M-1.1823431082390486e-11,367.50837875798334 a8.5,8.5 0 0 0 4.25,7.36 l124.36,71.8 a8.5,8.5 0 0 0 12.75,-7.36 v-128.84 l111.61,64.44 a8.5,8.5 0 0 0 12.75,-7.36 v-287.2 a8.5,8.5 0 0 0 -4.25,-7.36 L137.11999999998807,1.1383787579834461 a8.5,8.5 0 0 0 -12.75,7.36 v128.88 l-111.61,-64.44 a8.5,8.5 0 0 0 -12.75,7.36 v287.16 zm25.5,-143.56 l98.86,-57.08 v114.16 zm214.73,0 l-98.86,57.08 v-114.16 zm8.5,-128.88 v114.15 L149.86999999998807,152.13837875798345 zm-231.73,257.76 v-114.16 l98.86,57.08 zm0,-257.76 l98.87,57.07 l-98.86,57.08 v-114.15 zm124.36,-71.8 l98.86,57.08 l-98.85,57.07 v-114.15 zm107.36,329.56 l-98.86,-57.08 l98.86,-57.08 v114.16 zm-124.35,71.8 l-98.86,-57.08 l98.86,-57.08 v114.16 z" fill="#000" id="svg_1" class=""/></g></svg>