<svg xmlns="http://www.w3.org/2000/svg" data-name="Layer 1" width="967" height="221" style=""><rect id="backgroundrect" width="100%" height="100%" x="0" y="0" fill="none" stroke="none" class="" style=""/>
  <defs>
    <style>path{fill:#10224f}</style>
  </defs>
  
<g class="currentLayer" style=""><title>Layer 1</title><path d="M0.034444024838961806,6.697487633163749 a2.35,2.35 0 0 1 2.49,-2.49 h17.19 a2.35,2.35 0 0 1 2.49,2.49 v69.49 a1.32,1.32 0 0 0 1.49,1.49 h73.47 a1.32,1.32 0 0 0 1.49,-1.49 v-69.49 a2.35,2.35 0 0 1 2.49,-2.49 H118.3044440248394 a2.35,2.35 0 0 1 2.49,2.49 v164.38 a2.35,2.35 0 0 1 -2.49,2.49 h-17.19 a2.35,2.35 0 0 1 -2.49,-2.49 v-71.23 a1.32,1.32 0 0 0 -1.49,-1.49 h-73.47 a1.32,1.32 0 0 0 -1.49,1.49 v71.23 a2.35,2.35 0 0 1 -2.49,2.49 h-17.19 a2.35,2.35 0 0 1 -2.49,-2.49 v-164.38 zm147.69,137.49 c-2.74,-8.22 -4,-16.44 -4,-30.39 c0,-13.7 1.25,-21.92 4,-30.14 c6.48,-20.42 23.91,-32.13 47.07,-32.13 s40.6,11.71 47.07,32.13 c2.74,8.22 4,16.44 4,30.14 c0,13.95 -1.25,22.17 -4,30.39 c-6.48,20.17 -23.91,32.13 -47.07,32.13 s-40.59,-11.96 -47.07,-32.13 zm74,-6 c2,-6.48 2.74,-13 2.74,-24.41 s-0.7500000000000018,-17.68 -2.74,-24.16 c-4,-12 -13.7,-18.68 -26.9,-18.68 s-22.91,6.72 -26.9,18.68 c-2,6.48 -2.74,12.7 -2.74,24.16 s0.7500000000000018,17.93 2.74,24.41 c4,12 13.7,18.68 26.9,18.68 s22.89,-6.71 26.87,-18.66 zm79.49,36.63 c-20.92,0 -29.14,-10 -29.14,-31.38 v-135.93 a3,3 0 0 1 1.82,-2.74 l17,-4.65 a1.54,1.54 0 0 1 2.13,1.42 v140.66 c0,10 3.74,13.2 12,13.2 h4.73 a2.49,2.49 0 0 1 2.49,2.49 v14.45 a2.49,2.49 0 0 1 -2.49,2.49 h-8.47 zm30.09,-30.63 c-2.74,-8.22 -4,-16.44 -4,-30.39 c0,-13.7 1.25,-21.92 4,-30.14 c6.48,-20.42 23.91,-32.13 47.07,-32.13 s40.6,11.71 47.07,32.13 c2.74,8.22 4,16.44 4,30.14 c0,13.95 -1.25,22.17 -4,30.39 c-6.48,20.17 -23.91,32.13 -47.07,32.13 s-40.57,-11.96 -47.07,-32.13 zm74,-6 c2,-6.48 2.74,-13 2.74,-24.41 s-0.7500000000000018,-17.68 -2.74,-24.16 c-4,-12 -13.7,-18.68 -26.9,-18.68 s-22.91,6.72 -26.9,18.68 c-2,6.48 -2.74,12.7 -2.74,24.16 s0.7500000000000018,17.93 2.74,24.41 c4,12 13.7,18.68 26.9,18.68 s22.9,-6.71 26.9,-18.66 zm50.55,65.27 c-1,-1.25 -1,-2.24 0.25,-3.49 L466.3044440248392,189.7574876331637 a2.33,2.33 0 0 1 3.74,0 c8.22,7.47 16.69,12 28.14,12 c19.68,0 30.14,-10.21 30.14,-32.13 v-13.95 h-0.25 c-5.48,10 -15.69,16.44 -33.13,16.44 c-20.17,0 -34.12,-10.21 -40.1,-28.89 c-3,-9 -4,-17.68 -4,-31.38 s1,-22.42 4,-31.38 c6,-18.68 19.93,-28.89 40.1,-28.89 c17.43,0 27.65,6.48 33.13,16.44 h0.23 V56.75748763316369 a2.35,2.35 0 0 1 2.49,-2.49 h15.94 a2.35,2.35 0 0 1 2.5700000000000003,2.49 v111.58 c0,33.87 -18.43,52.8 -52.05,52.8 c-16.74,0.010000000000000033 -33.43,-7.22 -41.4,-17.68 zm69.74,-68.49 c2,-6 2.74,-13 2.74,-23.16 s-0.7500000000000018,-16.94 -2.74,-23.16 c-4.23,-12.2 -13,-17.68 -25.4,-17.68 c-13,0 -21.17,6.23 -25.16,17.68 c-2,6.23 -3,13.45 -3,23.16 s1,17.19 3,23.16 c4,11.71 12.2,17.93 25.16,17.93 c12.45,0 21.17,-5.73 25.4,-17.93 zm58.52,38.6 a2.35,2.35 0 0 1 -2.49,-2.49 V56.75748763316369 a2.35,2.35 0 0 1 2.49,-2.49 h15.94 a2.35,2.35 0 0 1 2.49,2.49 v12.2 h0.25 c5.23,-10.21 15.69,-17.43 31.63,-17.43 c9.47,0 18.43,3.49 24.41,9 c1.24,1.25 1.49,2.24 0.5,3.49 l-9.22,12.2 a2.26,2.26 0 0 1 -3.49,0.5 a33.61,33.61 0 0 0 -18.43,-5.73 c-18.18,0 -25.65,14.2 -25.65,34.87 v65.25 a2.35,2.35 0 0 1 -2.49,2.49 h-15.94 zm162.64,0 a2.35,2.35 0 0 1 -2.49,-2.49 v-10.46 h-0.25 c-5.48,9 -17.19,15.69 -35.37,15.69 c-22.66,0 -40.1,-11.71 -40.1,-35.87 c0,-25.16 17.43,-36.86 46.58,-36.86 H742.3044440248392 a1.32,1.32 0 0 0 1.49,-1.49 v-8.72 c0,-16.44 -6.48,-23.41 -28.64,-23.41 c-13.45,0 -21.92,3.49 -28.89,8.47 c-1.25,1 -2.74,1 -3.49,-0.25 l-6.72,-11.46 a2.63,2.63 0 0 1 0.5,-3.49 c9,-7 22.91,-11.71 40.6,-11.71 c33.87,0 46.82,11.21 46.82,40.6 v79 a2.35,2.35 0 0 1 -2.49,2.49 h-14.69 zm-3,-38.61 V121.75748763316369 a1.32,1.32 0 0 0 -1.49,-1.49 h-23.91 c-20.67,0 -29.64,6 -29.64,19.43 c0,12.2 9,18.68 24.91,18.68 c18.68,0 30.14,-8.72 30.14,-23.41 zm204.42,38.61 a2.35,2.35 0 0 1 -2.49,-2.49 v-69.74 c0,-19.18 -8.72,-30.39 -26.65,-30.39 c-15.94,0 -27.4,11.46 -27.4,29.14 v71 a2.35,2.35 0 0 1 -2.49,2.49 h-15.94 a2.35,2.35 0 0 1 -2.49,-2.49 v-69.74 c0,-19.18 -8.72,-30.39 -26.65,-30.39 c-16.19,0 -27.4,11.46 -27.4,29.14 v71 a2.35,2.35 0 0 1 -2.49,2.49 h-15.94 a2.35,2.35 0 0 1 -2.49,-2.49 V56.75748763316369 a2.35,2.35 0 0 1 2.49,-2.49 h15.94 a2.35,2.35 0 0 1 2.49,2.49 v11 h0.25 c5.73,-9.22 17.18,-16.19 33.38,-16.19 s28.14,6.73 34.87,18.68 h0.25 c8.22,-11.46 20.42,-18.68 38.61,-18.68 c27.65,0 42.59,17.68 42.59,44.83 v74.72 a2.35,2.35 0 0 1 -2.49,2.49 h-15.94 z" id="svg_1" class=""/><image id="svg_2" x="517.0000617006204" y="20.65738997691369" width="0" height="0" xmlns:xlink="http://www.w3.org/1999/xlink" xlink:href="logo/vector_paint_icon256.png" style="color: rgb(0, 0, 0);" class=""/></g></svg>