<svg width="30" height="28" viewBox="0 0 30 28" xmlns="http://www.w3.org/2000/svg">
  <g transform="translate(-3 -4)" fill="none" fill-rule="evenodd">
    <path d="M0 0h36v36H0z"></path>
    <rect fill="#7831CA" fill-rule="nonzero" opacity=".3" x="3" y="4.5" width="30" height="27" rx="3"></rect>
    <path
      d="M14.923 19.974A1.5 1.5 0 0 1 13.5 21h-6a1.5 1.5 0 0 1 0-3h4.919l2.658-7.974c.475-1.424 2.514-1.346 2.878.11l2.767 11.066 1.186-2.373A1.5 1.5 0 0 1 23.25 18h5.25a1.5 1.5 0 0 1 0 3h-4.323l-2.585 5.17c-.623 1.246-2.46 1.045-2.797-.306l-2.5-10.003-1.372 4.113z"
      fill="#7831CA" fill-rule="nonzero"></path>
    <circle fill="#7831CA" fill-rule="nonzero" opacity=".3" cx="28.5" cy="9" r="1.5"></circle>
  </g>
</svg>
