<?xml version="1.0" encoding="UTF-8"?>
<svg width="35px" height="35px" viewBox="0 0 35 35" version="1.1" xmlns="http://www.w3.org/2000/svg" xmlns:xlink="http://www.w3.org/1999/xlink">
    <g id="Page-1" stroke="none" stroke-width="1" fill="none" fill-rule="evenodd">
        <g id="refresh" fill="#000000" fill-rule="nonzero">
            <path d="M1.07291779,14.0232627 L2.01708221,14.3527373 C-0.418032596,21.3309631 2.99371846,28.9671879 9.62894702,31.9515721 L7.05335647,26.2488858 L7.96464353,25.8371142 L11.3393088,33.3055464 L3.31428406,34.4946003 L3.16771594,33.5053997 L8.80544548,32.6702667 C2.07763439,29.3993044 -1.37998086,21.5882929 0.962440769,14.3517815 L1.07291779,14.0232627 Z M29.1930314,14.0607906 L34.6257929,20.1759173 L33.8782071,20.8400827 L30.0501431,16.5301577 C31.0824292,24.0244076 26.6020956,31.2891592 19.3736799,33.3208724 L19.0481922,33.4083308 L18.7998078,32.4396692 C25.8347475,30.6357687 30.1900929,23.5392614 29.00309,16.2926186 L25.7778462,21.5793888 L24.9241538,21.0586112 L29.1930314,14.0607906 Z M8.11031897,0.632415233 L9.03968103,1.00158477 L6.91996682,6.3375884 C13.1073632,2.17025927 21.5053405,3.07687707 26.4605347,8.73079958 L26.6938714,9.00362097 L25.9261286,9.64437903 C21.2356424,4.024337 12.9822388,3.17370761 7.08045545,7.44510505 L13.2542171,8.06852815 L13.1537829,9.06347185 L5.08480991,8.24895204 L8.11031897,0.632415233 Z" id="Shape"></path>
        </g>
    </g>
</svg>
